<svg preserveAspectRatio="none" width="100%" height="100%" overflow="visible" style="display: block;" viewBox="0 0 150 150" fill="none" xmlns="http://www.w3.org/2000/svg">
<path id="Star 3" d="M75.0001 7.85084e-05L75.006 74.9253L86.7327 0.923456L75.0176 74.9271L98.1764 3.67084L75.0288 74.9308L109.049 8.17459L75.0393 74.9361L119.084 14.3238L75.0488 74.943L128.033 21.9671L75.0571 74.9514L135.676 30.9162L75.064 74.9609L141.826 40.9508L75.0694 74.9714L146.329 51.8238L75.073 74.9826L149.077 63.2675L75.0748 74.9942L150 75.0001L75.0748 75.006L149.077 86.7327L75.073 75.0176L146.329 98.1764L75.0694 75.0288L141.826 109.049L75.064 75.0393L135.676 119.084L75.0571 75.0488L128.033 128.033L75.0488 75.0571L119.084 135.676L75.0393 75.064L109.049 141.826L75.0288 75.0694L98.1764 146.329L75.0176 75.073L86.7327 149.077L75.006 75.0748L75.0001 150L74.9942 75.0748L63.2675 149.077L74.9826 75.073L51.8238 146.329L74.9714 75.0694L40.9508 141.826L74.9609 75.064L30.9162 135.676L74.9514 75.0571L21.9671 128.033L74.943 75.0488L14.3238 119.084L74.9361 75.0393L8.17459 109.049L74.9308 75.0288L3.67084 98.1764L74.9271 75.0176L0.923456 86.7327L74.9253 75.006L7.85084e-05 75.0001L74.9253 74.9942L0.923456 63.2675L74.9271 74.9826L3.67084 51.8238L74.9308 74.9714L8.17459 40.9508L74.9361 74.9609L14.3238 30.9162L74.943 74.9514L21.9671 21.9671L74.9514 74.943L30.9162 14.3238L74.9609 74.9361L40.9508 8.17459L74.9714 74.9308L51.8238 3.67084L74.9826 74.9271L63.2675 0.923456L74.9942 74.9253L75.0001 7.85084e-05Z" fill="var(--fill-0, #D9D9D9)" stroke="var(--stroke-0, white)" stroke-width="2"/>
</svg>
