<svg preserveAspectRatio="none" width="100%" height="100%" overflow="visible" style="display: block;" viewBox="0 0 200.472 200.472" fill="none" xmlns="http://www.w3.org/2000/svg">
<g id="Star 2">
<path d="M100.236 0.235946L115.543 63.2808L158.947 41.5253L137.191 84.9286L200.236 100.236L137.191 115.543L158.947 158.947L115.543 137.191L100.236 200.236L84.9286 137.191L41.5253 158.947L63.2808 115.543L0.235946 100.236L63.2808 84.9286L41.5253 41.5253L84.9286 63.2808L100.236 0.235946Z" fill="var(--fill-0, #262B44)"/>
<path d="M115.543 63.2808L100.236 0.235946L84.9286 63.2808M115.543 63.2808L158.947 41.5253L137.191 84.9286M115.543 63.2808L84.9286 137.191M137.191 84.9286L200.236 100.236L137.191 115.543M137.191 84.9286L63.2808 115.543M137.191 115.543L158.947 158.947L115.543 137.191M137.191 115.543L63.2808 84.9286M115.543 137.191L100.236 200.236L84.9286 137.191M115.543 137.191L84.9286 63.2808M84.9286 137.191L41.5253 158.947L63.2808 115.543M63.2808 115.543L0.235946 100.236L63.2808 84.9286M63.2808 84.9286L41.5253 41.5253L84.9286 63.2808" stroke="var(--stroke-0, #C29E90)" stroke-width="2"/>
</g>
</svg>
